<?xml version="1.0" encoding="UTF-8" standalone="no"?>
<!-- Created with Inkscape (http://www.inkscape.org/) -->

<svg
   width="210mm"
   height="297mm"
   viewBox="0 0 210 297"
   version="1.1"
   id="svg5"
   inkscape:version="1.2.2 (b0a8486541, 2022-12-01)"
   sodipodi:docname="figures.svg"
   xmlns:inkscape="http://www.inkscape.org/namespaces/inkscape"
   xmlns:sodipodi="http://sodipodi.sourceforge.net/DTD/sodipodi-0.dtd"
   xmlns="http://www.w3.org/2000/svg"
   xmlns:svg="http://www.w3.org/2000/svg">
  <sodipodi:namedview
     id="namedview7"
     pagecolor="#ffffff"
     bordercolor="#000000"
     borderopacity="0.25"
     inkscape:showpageshadow="2"
     inkscape:pageopacity="0.0"
     inkscape:pagecheckerboard="0"
     inkscape:deskcolor="#d1d1d1"
     inkscape:document-units="mm"
     showgrid="false"
     inkscape:zoom="1.2938725"
     inkscape:cx="167.32716"
     inkscape:cy="215.24532"
     inkscape:window-width="2560"
     inkscape:window-height="1387"
     inkscape:window-x="0"
     inkscape:window-y="25"
     inkscape:window-maximized="1"
     inkscape:current-layer="layer2" />
  <defs
     id="defs2" />
  <g
     inkscape:label="Layer 1"
     inkscape:groupmode="layer"
     id="layer1"
     style="display:none">
    <rect
       style="fill:#ffffff;stroke:#000000;stroke-width:0.1;stroke-dasharray:none"
       id="rect2467"
       width="26.333973"
       height="26.333973"
       x="38.951687"
       y="29.537476" />
    <rect
       style="fill:#ffffff;stroke:#000000;stroke-width:0.1;stroke-dasharray:none"
       id="rect2469"
       width="26.333973"
       height="26.333973"
       x="65.28566"
       y="29.537476" />
    <rect
       style="fill:#ffffff;stroke:#000000;stroke-width:0.1;stroke-dasharray:none"
       id="rect2471"
       width="26.333973"
       height="26.333973"
       x="91.619629"
       y="29.537476" />
    <rect
       style="fill:#ffffff;stroke:#000000;stroke-width:0.1;stroke-dasharray:none"
       id="rect2473"
       width="26.333973"
       height="26.333973"
       x="117.9536"
       y="29.537476" />
    <rect
       style="fill:#ffffff;stroke:#000000;stroke-width:0.1;stroke-dasharray:none"
       id="rect2475"
       width="26.333973"
       height="26.333973"
       x="144.28757"
       y="29.537476" />
    <rect
       style="fill:#ffffff;stroke:#000000;stroke-width:0.1;stroke-dasharray:none"
       id="rect2477"
       width="26.333973"
       height="26.333973"
       x="38.951687"
       y="55.871449" />
    <rect
       style="fill:#ffffff;stroke:#000000;stroke-width:0.1;stroke-dasharray:none"
       id="rect2479"
       width="26.333973"
       height="26.333973"
       x="65.28566"
       y="55.871449" />
    <rect
       style="fill:#ffffff;stroke:#000000;stroke-width:0.1;stroke-dasharray:none"
       id="rect2481"
       width="26.333973"
       height="26.333973"
       x="91.619629"
       y="55.871449" />
    <rect
       style="fill:#ffffff;stroke:#000000;stroke-width:0.1;stroke-dasharray:none"
       id="rect2483"
       width="26.333973"
       height="26.333973"
       x="117.9536"
       y="55.871449" />
    <rect
       style="fill:#ffffff;stroke:#000000;stroke-width:0.1;stroke-dasharray:none"
       id="rect2485"
       width="26.333973"
       height="26.333973"
       x="144.28757"
       y="55.871449" />
    <rect
       style="fill:#ffffff;stroke:#000000;stroke-width:0.1;stroke-dasharray:none"
       id="rect2487"
       width="26.333973"
       height="26.333973"
       x="38.951687"
       y="82.205421" />
    <rect
       style="fill:#ffffff;stroke:#000000;stroke-width:0.1;stroke-dasharray:none"
       id="rect2489"
       width="26.333973"
       height="26.333973"
       x="65.28566"
       y="82.205421" />
    <rect
       style="fill:#ffffff;stroke:#000000;stroke-width:0.1;stroke-dasharray:none"
       id="rect2491"
       width="26.333973"
       height="26.333973"
       x="91.619629"
       y="82.205421" />
    <rect
       style="fill:#ffffff;stroke:#000000;stroke-width:0.1;stroke-dasharray:none"
       id="rect2493"
       width="26.333973"
       height="26.333973"
       x="117.9536"
       y="82.205421" />
    <rect
       style="fill:#ffffff;stroke:#000000;stroke-width:0.1;stroke-dasharray:none"
       id="rect2495"
       width="26.333973"
       height="26.333973"
       x="144.28757"
       y="82.205421" />
    <rect
       style="fill:#ffffff;stroke:#000000;stroke-width:0.1;stroke-dasharray:none"
       id="rect2497"
       width="26.333973"
       height="26.333973"
       x="38.951687"
       y="108.5394" />
    <rect
       style="fill:#ffffff;stroke:#000000;stroke-width:0.1;stroke-dasharray:none"
       id="rect2499"
       width="26.333973"
       height="26.333973"
       x="65.28566"
       y="108.5394" />
    <rect
       style="fill:#ffffff;stroke:#000000;stroke-width:0.1;stroke-dasharray:none"
       id="rect2501"
       width="26.333973"
       height="26.333973"
       x="91.619629"
       y="108.5394" />
    <rect
       style="fill:#ffffff;stroke:#000000;stroke-width:0.1;stroke-dasharray:none"
       id="rect2503"
       width="26.333973"
       height="26.333973"
       x="117.9536"
       y="108.5394" />
    <rect
       style="fill:#ffffff;stroke:#000000;stroke-width:0.1;stroke-dasharray:none"
       id="rect2505"
       width="26.333973"
       height="26.333973"
       x="144.28757"
       y="108.5394" />
    <rect
       style="fill:#ffffff;stroke:#000000;stroke-width:0.1;stroke-dasharray:none"
       id="rect2507"
       width="26.333973"
       height="26.333973"
       x="38.951687"
       y="134.87337" />
    <rect
       style="fill:#ffffff;stroke:#000000;stroke-width:0.1;stroke-dasharray:none"
       id="rect2509"
       width="26.333973"
       height="26.333973"
       x="65.28566"
       y="134.87337" />
    <rect
       style="fill:#ffffff;stroke:#000000;stroke-width:0.1;stroke-dasharray:none"
       id="rect2511"
       width="26.333973"
       height="26.333973"
       x="91.619629"
       y="134.87337" />
    <rect
       style="fill:#ffffff;stroke:#000000;stroke-width:0.1;stroke-dasharray:none"
       id="rect2513"
       width="26.333973"
       height="26.333973"
       x="117.9536"
       y="134.87337" />
    <rect
       style="fill:#ffffff;stroke:#000000;stroke-width:0.1;stroke-dasharray:none"
       id="rect2515"
       width="26.333973"
       height="26.333973"
       x="144.28757"
       y="134.87337" />
    <path
       style="fill:none;stroke:#000000;stroke-width:0.5;stroke-dasharray:none"
       d="M 38.951687,82.205421 H 170.62154"
       id="path299"
       sodipodi:nodetypes="cc" />
    <path
       style="fill:none;stroke:#000000;stroke-width:0.5;stroke-dasharray:none"
       d="M 38.951687,108.5394 H 170.62154"
       id="path3339"
       sodipodi:nodetypes="cc" />
    <path
       style="fill:none;stroke:#000000;stroke-width:0.5;stroke-dasharray:none"
       d="M 38.951687,134.87337 H 170.62154"
       id="path3341"
       sodipodi:nodetypes="cc" />
    <path
       style="fill:none;stroke:#000000;stroke-width:0.5;stroke-dasharray:none"
       d="M 38.951687,161.20734 H 170.62154"
       id="path3343"
       sodipodi:nodetypes="cc" />
    <g
       id="g3357"
       transform="rotate(90,131.12059,121.70638)">
      <path
         style="fill:none;stroke:#000000;stroke-width:0.5;stroke-dasharray:none"
         d="M 38.951687,82.205421 H 170.62154"
         id="path3345"
         sodipodi:nodetypes="cc" />
      <path
         style="fill:none;stroke:#000000;stroke-width:0.5;stroke-dasharray:none"
         d="M 38.951687,108.5394 H 170.62154"
         id="path3347"
         sodipodi:nodetypes="cc" />
      <path
         style="fill:none;stroke:#000000;stroke-width:0.5;stroke-dasharray:none"
         d="M 38.951687,134.87337 H 170.62154"
         id="path3349"
         sodipodi:nodetypes="cc" />
      <path
         style="fill:none;stroke:#000000;stroke-width:0.5;stroke-dasharray:none"
         d="M 38.951687,161.20734 H 170.62154"
         id="path3351"
         sodipodi:nodetypes="cc" />
    </g>
    <path
       style="fill:none;stroke:#000000;stroke-width:0.5;stroke-dasharray:none"
       d="M 65.28566,55.871449 H 170.62154"
       id="path3359"
       sodipodi:nodetypes="cc" />
    <path
       style="fill:none;stroke:#000000;stroke-width:0.5;stroke-dasharray:none"
       d="M 65.28566,55.621449 V 161.20733"
       id="path3361"
       sodipodi:nodetypes="cc" />
  </g>
  <g
     inkscape:groupmode="layer"
     id="layer2"
     inkscape:label="Layer 2">
    <rect
       style="fill:#afe9af;stroke-width:0.1;stroke:none;stroke-dasharray:none"
       id="rect322"
       width="130.70561"
       height="130.70561"
       x="27.912926"
       y="18.156826"
       inkscape:export-filename="terrains.png"
       inkscape:export-xdpi="300"
       inkscape:export-ydpi="300" />
    <path
       style="fill:#2ca05a;stroke:#002b11;stroke-width:0.1;stroke-dasharray:none"
       d="m 105.57453,41.127113 c -9.911304,-1.83583 -19.890957,-4.507108 -30.036418,-3.992327 -6.88183,1.678549 -6.373583,10.147738 -3.034226,14.767732 1.753882,6.711114 -5.678964,8.863458 -10.845464,8.504752 -5.774024,-0.466995 -12.351525,5.011741 -7.851317,10.685168 2.624578,3.412682 6.567815,5.421447 9.83033,8.174318 2.821472,2.085775 5.708976,4.224497 7.749692,7.12675 -1.80952,4.521402 -6.268982,9.345034 -2.282501,13.843884 -0.94898,4.87209 -5.266659,10.47354 -0.642846,14.87889 4.006625,4.86979 9.699457,7.89459 14.650765,11.66503 4.671441,2.58338 10.240135,3.80873 15.543509,3.21703 6.200976,-2.20447 4.212246,-9.38392 2.317656,-13.76836 2.61705,-6.08354 7.88323,2.77546 12.05092,2.55855 5.94477,1.12338 10.49303,-4.3023 16.38535,-4.55146 4.58798,0.39575 7.27682,-3.90331 3.96028,-7.47559 -2.69125,-4.63152 -7.61553,-8.939084 -6.84002,-14.775199 3.00129,-5.055665 7.60406,-9.635549 8.22932,-15.978782 1.41073,-4.041565 5.20925,-8.786404 2.07293,-12.935371 -3.84004,-4.707402 -11.56303,-1.770817 -15.08681,-6.846284 -0.56583,-5.592284 -2.34138,-12.206646 -7.50781,-15.195857 -2.67951,-1.184988 -6.08575,-1.520629 -8.66334,0.09713 z"
       id="path3232" />
    <path
       style="fill:#005522;stroke:#002b11;stroke-width:0.1;stroke-dasharray:none"
       d="m 102.64321,49.786682 c -1.89818,0.787909 -4.789931,2.196964 -3.412188,4.643729 -0.687788,2.857706 -5.515244,2.021176 -5.402952,5.466521 -1.445914,2.463598 -2.822891,4.624298 -3.177227,7.500335 -1.884953,2.687837 -2.688606,5.821916 -4.920409,8.252851 -2.972535,2.062264 -1.620958,5.720949 -0.05195,8.219332 2.06947,1.816264 1.402822,4.262112 -0.700985,5.70907 -3.009236,2.269895 0.133184,5.0311 1.504008,7.160152 1.802242,2.340919 3.395066,5.332028 6.757641,5.450738 3.004318,0.39652 4.272809,3.60343 7.353872,3.6126 3.05901,0.28981 4.7521,3.43374 7.88479,3.4447 3.33325,0.91969 4.10736,-3.01949 2.06703,-4.96569 -0.96247,-2.54243 -3.31411,-4.486386 -3.62287,-7.254318 1.46192,-2.663853 1.31514,-6.09309 3.1102,-8.646835 2.2776,-1.5099 6.19551,0.0033 7.00211,-3.637274 5.86273,-5.523904 6.69321,-9.159577 6.68384,-14.574817 -0.009,-5.41524 -3.43976,-7.2644 -8.84157,-19.225648 -2.26066,-1.270819 -4.13306,2.152159 -5.05688,3.867991 0.03,2.664991 -5.33311,0.13926 -3.93861,3.44794 1.34506,2.664287 0.91442,6.121117 -1.81254,7.580224 -1.21365,2.541613 -5.478793,2.273419 -5.205499,-0.910863 -2.033043,-3.330198 2.984279,-4.112144 4.665019,-5.820749 0.84063,-1.994576 -0.69152,-4.549879 1.19424,-6.511151 2.36772,-1.377683 -1.95764,-6.073867 -2.0786,-2.808838 z"
       id="path4072"
       sodipodi:nodetypes="ccccccccccccccczccccccccc" />
    <path
       id="path4147"
       style="color:#000000;fill:#a05a2c;-inkscape-stroke:none"
       d="M 158.61874 69.967306 C 154.97296 70.434075 151.39353 71.553744 148.2385 73.931405 L 148.21266 73.951042 L 148.1894 73.970679 C 143.40618 77.899813 139.08392 82.236971 133.51175 83.749927 L 133.49779 83.754061 L 133.48643 83.757678 C 125.57176 86.056493 116.69134 83.517145 107.6234 85.245959 C 98.098478 84.912233 89.902238 89.926003 82.266296 93.844918 C 78.487351 95.076114 76.708726 98.267029 75.341654 101.15042 C 73.976919 104.02887 72.84441 106.64601 70.722815 108.03733 C 64.455451 109.96519 58.116068 111.77068 51.831978 113.86127 L 51.753947 113.88659 L 51.679533 113.92173 C 47.385155 115.89553 43.083851 115.15759 38.380603 113.95739 C 35.041934 113.10536 31.555229 112.00476 27.913025 111.71618 L 27.913025 114.7408 C 31.047125 115.03872 34.282387 116.00667 37.638529 116.86315 C 42.445432 118.08987 47.60844 119.04276 52.817965 116.69624 C 59.092104 114.61023 65.484796 112.79105 71.865381 110.82424 L 72.052966 110.76792 L 72.220915 110.66198 C 75.438452 108.64666 76.719567 105.24284 78.050533 102.43561 C 79.3815 99.628371 80.593935 97.484524 83.306543 96.656116 L 83.433667 96.617358 L 83.552523 96.556897 C 91.394889 92.537932 99.187526 87.89204 107.6756 88.24836 L 107.85337 88.256112 L 108.02751 88.220972 C 116.19319 86.615015 125.26052 89.266092 134.31273 86.640706 C 140.84997 84.859782 145.46282 80.100008 150.05492 76.322473 C 152.58335 74.42048 155.50706 73.446252 158.61874 73.000712 L 158.61874 69.967306 z " />
    <path
       id="path5675"
       style="color:#000000;fill:#d38d5f;-inkscape-stroke:none"
       d="M 49.530827 117.7618 C 49.034482 117.86625 48.539145 117.95116 48.045129 118.00933 C 48.303489 121.20152 49.269763 124.75256 52.234538 126.72405 C 55.026108 129.91699 58.785034 131.9068 62.480424 133.54895 C 63.661361 134.15766 64.777575 135.13127 65.501945 136.26765 C 66.226316 137.40403 66.565362 138.6741 66.295178 139.98422 L 66.293111 139.99611 L 66.291044 140.00592 C 66.206244 140.48409 65.953679 140.98213 65.67196 141.56449 C 65.393359 142.14042 65.090171 142.81456 65.056494 143.63309 C 64.83601 145.44982 65.182739 147.23577 65.89727 148.86223 L 67.565385 148.86223 C 66.745947 147.27438 66.325558 145.50794 66.544775 143.77572 L 66.54891 143.74265 L 66.550977 143.70699 C 66.566917 143.23068 66.757473 142.76667 67.023299 142.21716 C 67.287786 141.67041 67.624597 141.04984 67.763822 140.27774 C 68.119175 138.53646 67.653027 136.85225 66.767501 135.46305 C 65.879934 134.07065 64.579633 132.9445 63.167721 132.21674 L 63.1486 132.20692 L 63.126896 132.1971 C 59.456182 130.56815 55.866899 128.63713 53.298556 125.66365 L 53.228276 125.582 L 53.138875 125.52309 C 50.658887 123.92316 49.760978 120.7852 49.530827 117.7618 z " />
    <path
       id="path5747"
       style="color:#000000;fill:#c8ab37;-inkscape-stroke:none"
       d="M 109.78503 60.470728 C 109.1738 61.060738 108.86445 61.833694 108.64867 62.558455 L 108.64453 62.574475 L 108.6404 62.592045 C 108.01796 65.563307 106.76461 68.415777 104.80859 70.728499 L 104.79464 70.746069 L 104.7812 70.765706 C 103.50158 72.703562 101.52015 74.254105 99.226501 74.601648 C 97.960236 74.695498 96.578176 74.725118 95.30426 75.373177 C 95.303268 75.373623 95.301643 75.37273 95.300643 75.373177 C 93.079848 76.372075 91.059894 78.642694 91.38667 81.293229 C 91.699792 83.898174 93.399648 85.860257 95.041227 87.640129 C 95.309903 87.536409 95.576719 87.428352 95.84738 87.329553 C 94.159126 85.492894 92.470255 83.603773 92.181453 81.195561 L 92.181453 81.193494 C 91.911039 79.000114 93.66843 76.975755 95.644291 76.093547 L 95.65411 76.089929 L 95.663928 76.085795 C 96.741373 75.53664 98.013492 75.494196 99.316418 75.396431 L 99.331921 75.396431 L 99.345357 75.392814 C 101.90931 75.004313 104.05057 73.305391 105.43129 71.224593 C 107.47568 68.800498 108.77507 65.840384 109.42019 62.772396 C 109.61915 62.108262 109.89087 61.481979 110.34159 61.04692 L 109.78503 60.470728 z " />
    <rect
       style="fill:none;stroke-width:0.1;stroke:#000000;stroke-dasharray:none"
       id="rect5759"
       width="130.70561"
       height="130.70561"
       x="27.912926"
       y="18.156826" />
    <text
       xml:space="preserve"
       style="font-size:5.41039px;line-height:0.8;font-family:'Kids Handwriting';-inkscape-font-specification:'Kids Handwriting';text-align:justify;fill:none;stroke:none;stroke-width:0.61346;stroke-dasharray:none"
       x="50.824409"
       y="35.980736"
       id="text6543"><tspan
         sodipodi:role="line"
         id="tspan6541"
         style="font-style:normal;font-variant:normal;font-weight:bold;font-stretch:normal;font-family:'Linux Biolinum';-inkscape-font-specification:'Linux Biolinum Bold';text-align:center;text-anchor:middle;fill:#000000;stroke-width:0.613461"
         x="50.824409"
         y="35.980736">Plaine valonnée</tspan><tspan
         sodipodi:role="line"
         style="font-style:normal;font-variant:normal;font-weight:bold;font-stretch:normal;font-family:'Linux Biolinum';-inkscape-font-specification:'Linux Biolinum Bold';text-align:center;text-anchor:middle;fill:#000000;stroke-width:0.613461"
         x="50.824409"
         y="40.394779"
         id="tspan7273">(3 à 6)</tspan></text>
    <text
       xml:space="preserve"
       style="font-size:7.46059px;line-height:0.8;font-family:'Kids Handwriting';-inkscape-font-specification:'Kids Handwriting';text-align:end;text-anchor:end;fill:none;stroke:none;stroke-width:0.845923;stroke-dasharray:none"
       x="157.38474"
       y="25.045019"
       id="text8057"><tspan
         sodipodi:role="line"
         style="font-style:normal;font-variant:normal;font-weight:bold;font-stretch:normal;font-family:'Linux Biolinum';-inkscape-font-specification:'Linux Biolinum Bold';text-align:end;text-anchor:end;fill:#000000;stroke-width:0.845924"
         x="157.38474"
         y="25.045019"
         id="tspan8055">Taille des diverses voies</tspan><tspan
         sodipodi:role="line"
         style="font-style:normal;font-variant:normal;font-weight:bold;font-stretch:normal;font-family:'Linux Biolinum';-inkscape-font-specification:'Linux Biolinum Bold';text-align:end;text-anchor:end;fill:#000000;stroke-width:0.845924"
         x="157.38474"
         y="31.13171"
         id="tspan8061">de communication</tspan></text>
    <text
       xml:space="preserve"
       style="font-size:5.41039px;line-height:0.8;font-family:'Kids Handwriting';-inkscape-font-specification:'Kids Handwriting';text-align:justify;fill:none;stroke:none;stroke-width:0.61346;stroke-dasharray:none"
       x="74.681076"
       y="67.236687"
       id="text8795"><tspan
         sodipodi:role="line"
         id="tspan8791"
         style="font-style:normal;font-variant:normal;font-weight:bold;font-stretch:normal;font-family:'Linux Biolinum';-inkscape-font-specification:'Linux Biolinum Bold';text-align:center;text-anchor:middle;fill:#000000;stroke-width:0.613461"
         x="74.681076"
         y="67.236687">Sous-bois</tspan><tspan
         sodipodi:role="line"
         style="font-style:normal;font-variant:normal;font-weight:bold;font-stretch:normal;font-family:'Linux Biolinum';-inkscape-font-specification:'Linux Biolinum Bold';text-align:center;text-anchor:middle;fill:#000000;stroke-width:0.613461"
         x="74.681076"
         y="71.650726"
         id="tspan8793">(2)</tspan></text>
    <text
       xml:space="preserve"
       style="font-size:5.41039px;line-height:0.8;font-family:'Kids Handwriting';-inkscape-font-specification:'Kids Handwriting';text-align:justify;fill:none;stroke:none;stroke-width:0.61346;stroke-dasharray:none"
       x="115.00159"
       y="73.340836"
       id="text10306"><tspan
         sodipodi:role="line"
         id="tspan10302"
         style="font-style:normal;font-variant:normal;font-weight:bold;font-stretch:normal;font-family:'Linux Biolinum';-inkscape-font-specification:'Linux Biolinum Bold';text-align:center;text-anchor:middle;fill:#000000;stroke-width:0.613461"
         x="115.00159"
         y="73.340836">Forêt</tspan><tspan
         sodipodi:role="line"
         style="font-style:normal;font-variant:normal;font-weight:bold;font-stretch:normal;font-family:'Linux Biolinum';-inkscape-font-specification:'Linux Biolinum Bold';text-align:center;text-anchor:middle;fill:#000000;stroke-width:0.613461"
         x="115.00159"
         y="77.754883"
         id="tspan10304">(1)</tspan></text>
    <text
       xml:space="preserve"
       style="font-size:4.09015px;line-height:0.8;font-family:'Kids Handwriting';-inkscape-font-specification:'Kids Handwriting';text-align:justify;fill:none;stroke:none;stroke-width:0.463763;stroke-dasharray:none"
       id="text11768"
       y="150.28772"
       x="68.279358"
       transform="rotate(-36.355019)"><tspan
         sodipodi:role="line"
         style="font-style:normal;font-variant:normal;font-weight:bold;font-stretch:normal;font-family:'Linux Biolinum';-inkscape-font-specification:'Linux Biolinum Bold';text-align:center;text-anchor:middle;fill:#000000;stroke:none;stroke-width:0.463764"
         x="68.279358"
         y="150.28772"
         id="tspan11766">Route (6)</tspan></text>
    <text
       xml:space="preserve"
       style="font-size:4.09015px;line-height:0.8;font-family:'Kids Handwriting';-inkscape-font-specification:'Kids Handwriting';text-align:justify;fill:none;stroke:none;stroke-width:0.463763;stroke-dasharray:none"
       x="124.90466"
       y="67.957703"
       id="text12604"
       transform="rotate(37.059487)"><tspan
         sodipodi:role="line"
         style="font-style:normal;font-variant:normal;font-weight:bold;font-stretch:normal;font-family:'Linux Biolinum';-inkscape-font-specification:'Linux Biolinum Bold';text-align:center;text-anchor:middle;fill:#000000;stroke-width:0.463764"
         x="124.90466"
         y="67.957703"
         id="tspan12602">Chemin (4)</tspan></text>
    <text
       xml:space="preserve"
       style="font-size:4.09015px;line-height:0.8;font-family:'Kids Handwriting';-inkscape-font-specification:'Kids Handwriting';text-align:justify;fill:none;stroke:none;stroke-width:0.463763;stroke-dasharray:none"
       x="47.735577"
       y="112.62206"
       id="text13336"
       transform="rotate(-30.048333)"><tspan
         sodipodi:role="line"
         style="font-style:normal;font-variant:normal;font-weight:bold;font-stretch:normal;font-family:'Linux Biolinum';-inkscape-font-specification:'Linux Biolinum Bold';text-align:center;text-anchor:middle;fill:#000000;stroke-width:0.463764"
         x="47.735577"
         y="112.62206"
         id="tspan13334">Sentier (2)</tspan></text>
  </g>
</svg>
